<?xml version="1.0" encoding="UTF-8"?>
<!--Generator: Apple Native CoreSVG 232.5-->
<!DOCTYPE svg
PUBLIC "-//W3C//DTD SVG 1.1//EN"
       "http://www.w3.org/Graphics/SVG/1.1/DTD/svg11.dtd">
<svg version="1.1" xmlns="http://www.w3.org/2000/svg" xmlns:xlink="http://www.w3.org/1999/xlink" width="38.1588" height="38.1669">
 <g>
  <rect height="38.1669" opacity="0" width="38.1588" x="0" y="0"/>
  <path d="M38.1587 19.0714C38.1587 29.5118 29.5118 38.1428 19.0714 38.1428C8.63852 38.1428-8.88178e-16 29.5118-8.88178e-16 19.0714C-8.88178e-16 8.63097 8.62267 0 19.0556 0C29.496 0 38.1587 8.63097 38.1587 19.0714ZM26.5213 9.52583L7.8906 18.3447C6.75604 18.8799 6.95733 20.5075 8.4394 20.5075L16.9358 20.5158C17.2298 20.5158 17.4521 20.7223 17.4521 21.0404L17.4604 29.4403C17.4604 30.9797 19.0888 31.1229 19.6074 30.0223L28.3796 11.3765C29.0188 10.0188 27.8617 8.88728 26.5213 9.52583Z" fill="#0a84ff"/>
  <path d="M8.4394 20.5075C6.95733 20.5075 6.75604 18.8799 7.8906 18.3447L26.5213 9.52583C27.8617 8.88728 29.0188 10.0188 28.3796 11.3765L19.6074 30.0223C19.0888 31.1229 17.4604 30.9797 17.4604 29.4403L17.4521 21.0404C17.4521 20.7223 17.2298 20.5158 16.9358 20.5158Z" fill="#ffffff"/>
 </g>
</svg>
